<svg width="9" height="15" viewBox="0 0 9 15" fill="none" xmlns="http://www.w3.org/2000/svg">
<path d="M7.4885 0.668396L7.48862 0.668278C7.55187 0.607905 7.63595 0.574219 7.72338 0.574219C7.81004 0.574219 7.89339 0.607305 7.95644 0.666664C7.98065 0.690586 7.99993 0.719033 8.01319 0.750395C8.02672 0.782419 8.03369 0.816833 8.03369 0.851601C8.03369 0.886368 8.02672 0.920782 8.01319 0.952806C7.99983 0.984418 7.98034 1.01307 7.95587 1.03711L2.02753 6.71552L1.64854 7.07852L2.02945 7.43951L7.95656 13.0568C7.98072 13.0807 7.99996 13.1091 8.01319 13.1404C8.02672 13.1724 8.03369 13.2068 8.03369 13.2416C8.03369 13.2764 8.02672 13.3108 8.01319 13.3428C7.99993 13.3742 7.98066 13.4026 7.95645 13.4265C7.8934 13.4859 7.81004 13.519 7.72339 13.519C7.63595 13.519 7.55187 13.4853 7.48862 13.4249L7.4885 13.4248L1.1985 7.42481L1.1986 7.4247L1.18969 7.4166C1.13813 7.36974 1.09693 7.31262 1.06874 7.2489C1.04055 7.18518 1.02599 7.11628 1.02599 7.0466C1.02599 6.97693 1.04055 6.90802 1.06874 6.8443C1.09694 6.78059 1.13813 6.72346 1.18969 6.6766L1.18979 6.67671L1.1985 6.6684L7.4885 0.668396Z" fill="#B8BDCC" stroke="#AAAFBD"/>
</svg>
