<svg width="9" height="15" viewBox="0 0 9 15" fill="none" xmlns="http://www.w3.org/2000/svg">
<path d="M1.5115 14.3316L1.51138 14.3317C1.44813 14.3921 1.36405 14.4258 1.27662 14.4258C1.18996 14.4258 1.10661 14.3927 1.04356 14.3333C1.01935 14.3094 1.00007 14.281 0.986814 14.2496C0.973281 14.2176 0.966308 14.1832 0.966308 14.1484C0.966308 14.1136 0.973281 14.0792 0.986814 14.0472C1.00017 14.0156 1.01966 13.9869 1.04413 13.9629L6.97247 8.28448L7.35146 7.92148L6.97055 7.56049L1.04344 1.94322C1.01928 1.91932 1.00004 1.89092 0.986813 1.85961C0.973279 1.82758 0.966307 1.79317 0.966307 1.7584C0.966307 1.72363 0.973279 1.68922 0.986813 1.65719C1.00007 1.62583 1.01934 1.59739 1.04355 1.57347C1.1066 1.5141 1.18996 1.48102 1.27661 1.48102C1.36405 1.48102 1.44813 1.5147 1.51138 1.57508L1.5115 1.5752L7.8015 7.57519L7.8014 7.5753L7.81031 7.5834C7.86187 7.63026 7.90307 7.68738 7.93126 7.7511C7.95945 7.81482 7.97401 7.88372 7.97401 7.9534C7.97401 8.02307 7.95945 8.09198 7.93126 8.1557C7.90306 8.21941 7.86187 8.27654 7.81031 8.3234L7.81021 8.32329L7.8015 8.3316L1.5115 14.3316Z" fill="#B8BDCC" stroke="#AAAFBD"/>
</svg>
