<svg width="12" height="22" viewBox="0 0 12 22" fill="none" xmlns="http://www.w3.org/2000/svg">
<path d="M8 9.95H4C3.46957 9.95 2.96086 9.72875 2.58579 9.33492C2.21071 8.9411 2 8.40695 2 7.85C2 7.29305 2.21071 6.7589 2.58579 6.36508C2.96086 5.97125 3.46957 5.75 4 5.75H9C9.26522 5.75 9.51957 5.86062 9.70711 6.05754C9.89464 6.25445 10 6.52152 10 6.8C10 7.07848 10.1054 7.34555 10.2929 7.54246C10.4804 7.73937 10.7348 7.85 11 7.85C11.2652 7.85 11.5196 7.73937 11.7071 7.54246C11.8946 7.34555 12 7.07848 12 6.8C12 5.96457 11.6839 5.16335 11.1213 4.57261C10.5587 3.98187 9.79565 3.65 9 3.65H7V1.55C7 1.27152 6.89464 1.00445 6.70711 0.807538C6.51957 0.610625 6.26522 0.5 6 0.5C5.73478 0.5 5.48043 0.610625 5.29289 0.807538C5.10536 1.00445 5 1.27152 5 1.55V3.65H4C2.93913 3.65 1.92172 4.0925 1.17157 4.88015C0.421427 5.6678 0 6.73609 0 7.85C0 8.96391 0.421427 10.0322 1.17157 10.8198C1.92172 11.6075 2.93913 12.05 4 12.05H8C8.53043 12.05 9.03914 12.2712 9.41421 12.6651C9.78929 13.0589 10 13.593 10 14.15C10 14.707 9.78929 15.2411 9.41421 15.6349C9.03914 16.0287 8.53043 16.25 8 16.25H3C2.73478 16.25 2.48043 16.1394 2.29289 15.9425C2.10536 15.7455 2 15.4785 2 15.2C2 14.9215 1.89464 14.6545 1.70711 14.4575C1.51957 14.2606 1.26522 14.15 1 14.15C0.734784 14.15 0.48043 14.2606 0.292893 14.4575C0.105357 14.6545 0 14.9215 0 15.2C0 16.0354 0.316071 16.8366 0.87868 17.4274C1.44129 18.0181 2.20435 18.35 3 18.35H5V20.45C5 20.7285 5.10536 20.9955 5.29289 21.1925C5.48043 21.3894 5.73478 21.5 6 21.5C6.26522 21.5 6.51957 21.3894 6.70711 21.1925C6.89464 20.9955 7 20.7285 7 20.45V18.35H8C9.06087 18.35 10.0783 17.9075 10.8284 17.1198C11.5786 16.3322 12 15.2639 12 14.15C12 13.0361 11.5786 11.9678 10.8284 11.1802C10.0783 10.3925 9.06087 9.95 8 9.95Z" fill="black"/>
</svg>
