<svg width="22" height="18" viewBox="0 0 22 18" fill="none" xmlns="http://www.w3.org/2000/svg">
<path d="M15.8 9.8449H11.105C10.8768 9.81656 10.6669 9.70765 10.5148 9.53858C10.3627 9.3695 10.2788 9.15189 10.2788 8.92653C10.2788 8.70117 10.3627 8.48356 10.5148 8.31449C10.6669 8.14541 10.8768 8.0365 11.105 8.00816H15.8C16.0282 8.0365 16.2381 8.14541 16.3902 8.31449C16.5423 8.48356 16.6262 8.70117 16.6262 8.92653C16.6262 9.15189 16.5423 9.3695 16.3902 9.53858C16.2381 9.70765 16.0282 9.81656 15.8 9.8449ZM16.73 12.7837C16.73 12.5407 16.6325 12.3074 16.4585 12.1342C16.2845 11.961 16.048 11.8618 15.8 11.858H6.035C5.80678 11.8863 5.59694 11.9952 5.44484 12.1643C5.29274 12.3334 5.20882 12.551 5.20882 12.7763C5.20882 13.0017 5.29274 13.2193 5.44484 13.3884C5.59694 13.5574 5.80678 13.6664 6.035 13.6947H15.8C16.0467 13.6947 16.2832 13.5987 16.4576 13.4279C16.632 13.257 16.73 13.0253 16.73 12.7837ZM21.5 4.77551V16.5306C21.5 16.9203 21.342 17.2941 21.0607 17.5696C20.7794 17.8452 20.3978 18 20 18H2C1.60218 18 1.22064 17.8452 0.93934 17.5696C0.658035 17.2941 0.5 16.9203 0.5 16.5306V4.77551C0.5 4.3858 0.658035 4.01206 0.93934 3.7365C1.22064 3.46093 1.60218 3.30612 2 3.30612H3.935V1.10204C3.935 0.809761 4.05353 0.529453 4.2645 0.32278C4.47548 0.116107 4.76163 0 5.06 0C5.35837 0 5.64452 0.116107 5.8555 0.32278C6.06647 0.529453 6.185 0.809761 6.185 1.10204V3.30612H15.935V1.10204C15.935 0.809761 16.0535 0.529453 16.2645 0.32278C16.4755 0.116107 16.7616 0 17.06 0C17.3584 0 17.6445 0.116107 17.8555 0.32278C18.0665 0.529453 18.185 0.809761 18.185 1.10204V3.30612H20C20.3978 3.30612 20.7794 3.46093 21.0607 3.7365C21.342 4.01206 21.5 4.3858 21.5 4.77551ZM19.25 5.5102H2.75V15.7959H19.25V5.5102Z" fill="black"/>
</svg>
