<svg width="22" height="18" viewBox="0 0 22 18" fill="none" xmlns="http://www.w3.org/2000/svg">
<path d="M19.25 2.25V15.75H2.75V2.25H19.25ZM20 0H2C1.60218 0 1.22064 0.158035 0.93934 0.43934C0.658035 0.720644 0.5 1.10218 0.5 1.5V16.5C0.5 16.8978 0.658035 17.2794 0.93934 17.5607C1.22064 17.842 1.60218 18 2 18H20C20.3978 18 20.7794 17.842 21.0607 17.5607C21.342 17.2794 21.5 16.8978 21.5 16.5V1.5C21.5 1.10218 21.342 0.720644 21.0607 0.43934C20.7794 0.158035 20.3978 0 20 0ZM17 11.52V10.98C16.9584 10.6204 16.7787 10.2911 16.4988 10.0616C16.2189 9.83209 15.8607 9.72036 15.5 9.75H6.5C6.13925 9.72036 5.78111 9.83209 5.50122 10.0616C5.22132 10.2911 5.0416 10.6204 5 10.98V11.52C5.0416 11.8796 5.22132 12.2089 5.50122 12.4384C5.78111 12.6679 6.13925 12.7796 6.5 12.75H15.5C15.8607 12.7796 16.2189 12.6679 16.4988 12.4384C16.7787 12.2089 16.9584 11.8796 17 11.52ZM15.5 6.645V6.105C15.5122 5.79315 15.401 5.48905 15.1903 5.25876C14.9797 5.02846 14.6867 4.89056 14.375 4.875H7.625C7.31329 4.89056 7.02031 5.02846 6.80968 5.25876C6.59904 5.48905 6.48776 5.79315 6.5 6.105V6.645C6.48776 6.95685 6.59904 7.26095 6.80968 7.49124C7.02031 7.72154 7.31329 7.85944 7.625 7.875H14.375C14.6867 7.85944 14.9797 7.72154 15.1903 7.49124C15.401 7.26095 15.5122 6.95685 15.5 6.645Z" fill="black"/>
</svg>
