<svg width="22" height="22" viewBox="0 0 22 22" fill="none" xmlns="http://www.w3.org/2000/svg">
<path d="M9.17482 2.99L18.7352 12.155L12.5067 18.695L2.96133 9.5V3.32L9.09977 2.945L9.17482 2.99ZM9.505 0.500002H9.38493L2.27095 0.935002C1.81823 0.968706 1.39456 1.17065 1.08342 1.50105C0.772289 1.83145 0.596253 2.26633 0.590003 2.72L0.499953 9.89C0.495522 10.1111 0.53728 10.3307 0.62256 10.5347C0.70784 10.7387 0.834767 10.9228 0.995231 11.075L11.4111 21.065C11.7103 21.3398 12.1004 21.4947 12.5067 21.5C12.7493 21.4976 12.9888 21.4458 13.2108 21.3478C13.4327 21.2498 13.6323 21.1076 13.7974 20.93L21.0014 13.325C21.1594 13.1676 21.2847 12.9805 21.3701 12.7746C21.4556 12.5687 21.4996 12.3479 21.4996 12.125C21.4996 11.9021 21.4556 11.6813 21.3701 11.4754C21.2847 11.2695 21.1594 11.0824 21.0014 10.925L10.6006 0.935002C10.3046 0.655124 9.91247 0.499423 9.505 0.500002ZM7.25374 5.75C6.9569 5.75 6.66673 5.83798 6.41992 6.0028C6.1731 6.16762 5.98074 6.40189 5.86714 6.67598C5.75355 6.95007 5.72382 7.25167 5.78174 7.54264C5.83965 7.83361 5.98259 8.10088 6.19248 8.31066C6.40238 8.52044 6.6698 8.6633 6.96094 8.72118C7.25207 8.77906 7.55384 8.74935 7.82809 8.63582C8.10233 8.52229 8.33673 8.33003 8.50164 8.08336C8.66656 7.83668 8.75458 7.54667 8.75458 7.25C8.75458 6.85218 8.59646 6.47065 8.31499 6.18934C8.03353 5.90804 7.65179 5.75 7.25374 5.75Z" fill="black"/>
</svg>
