<svg width="18" height="22" viewBox="0 0 18 22" fill="none" xmlns="http://www.w3.org/2000/svg">
<path d="M16.7698 7.85C16.7325 7.47871 16.5582 7.13467 16.2808 6.88504C16.0034 6.63541 15.643 6.49813 15.2698 6.5H13.4998C13.4998 3.185 11.4748 0.5 8.99983 0.5C6.52483 0.5 4.49983 3.185 4.49983 6.5H2.74483C2.37168 6.49813 2.01123 6.63541 1.73387 6.88504C1.4565 7.13467 1.28214 7.47871 1.24483 7.85L-0.000169537 19.85C-0.021199 20.0592 0.00199222 20.2705 0.0678996 20.4702C0.133807 20.6699 0.240958 20.8534 0.3824 21.009C0.523842 21.1646 0.696414 21.2887 0.88892 21.3733C1.08143 21.4579 1.28956 21.5011 1.49983 21.5H16.4998C16.7101 21.5011 16.9182 21.4579 17.1107 21.3733C17.3032 21.2887 17.4758 21.1646 17.6173 21.009C17.7587 20.8534 17.8659 20.6699 17.9318 20.4702C17.9977 20.2705 18.0209 20.0592 17.9998 19.85L16.7698 7.85ZM8.99983 2.405C10.4998 2.405 11.6998 4.52 11.6998 6.5H6.29983C6.29983 4.52 7.49983 2.405 8.99983 2.405ZM2.32483 19.25L3.40483 8.75H14.5948L15.6748 19.25H2.32483Z" fill="black"/>
</svg>
