<svg width="22" height="18" viewBox="0 0 22 18" fill="none" xmlns="http://www.w3.org/2000/svg">
<path d="M20 0H2C1.60218 0 1.22064 0.158035 0.93934 0.43934C0.658035 0.720644 0.5 1.10218 0.5 1.5V6C0.5 6.39782 0.658035 6.77936 0.93934 7.06066C1.22064 7.34196 1.60218 7.5 2 7.5V16.5C2 16.8978 2.15804 17.2794 2.43934 17.5607C2.72064 17.842 3.10218 18 3.5 18H18.5C18.8978 18 19.2794 17.842 19.5607 17.5607C19.842 17.2794 20 16.8978 20 16.5V7.5C20.3978 7.5 20.7794 7.34196 21.0607 7.06066C21.342 6.77936 21.5 6.39782 21.5 6V1.5C21.5 1.10218 21.342 0.720644 21.0607 0.43934C20.7794 0.158035 20.3978 0 20 0ZM19.25 2.25V4.875H2.75V2.25H19.25ZM17.75 15.75H4.25V7.5H17.75V15.75ZM14 12H8C7.70163 12 7.41548 11.8815 7.2045 11.6705C6.99353 11.4595 6.875 11.1734 6.875 10.875C6.875 10.5766 6.99353 10.2905 7.2045 10.0795C7.41548 9.86853 7.70163 9.75 8 9.75H14C14.2984 9.75 14.5845 9.86853 14.7955 10.0795C15.0065 10.2905 15.125 10.5766 15.125 10.875C15.125 11.1734 15.0065 11.4595 14.7955 11.6705C14.5845 11.8815 14.2984 12 14 12Z" fill="black"/>
</svg>
