<svg width="18" height="22" viewBox="0 0 18 22" fill="none" xmlns="http://www.w3.org/2000/svg">
<path d="M9.00001 10.9997C7.95919 11.0116 6.93832 10.7138 6.0671 10.1442C5.19589 9.57459 4.51365 8.75887 4.10708 7.80067C3.7005 6.84247 3.58793 5.78503 3.78368 4.76271C3.97943 3.74039 4.47465 2.79933 5.20643 2.05909C5.93821 1.31885 6.87351 0.812842 7.89352 0.605359C8.91352 0.397876 9.97218 0.498281 10.935 0.893816C11.8978 1.28935 12.7213 1.96217 13.3009 2.82678C13.8805 3.69139 14.1899 4.70877 14.19 5.74966C14.194 6.43516 14.0629 7.11473 13.8042 7.74956C13.5455 8.3844 13.1643 8.96206 12.6823 9.44957C12.2004 9.93708 11.6272 10.3249 10.9953 10.5909C10.3635 10.8568 9.68551 10.9957 9.00001 10.9997ZM9.00001 2.77966C8.40667 2.77966 7.82665 2.95561 7.3333 3.28525C6.83995 3.61489 6.45544 4.08343 6.22837 4.63161C6.00131 5.17979 5.9419 5.78299 6.05766 6.36493C6.17341 6.94687 6.45913 7.48142 6.87869 7.90098C7.29825 8.32054 7.8328 8.60626 8.41474 8.72202C8.99668 8.83777 9.59988 8.77836 10.1481 8.5513C10.6962 8.32424 11.1648 7.93972 11.4944 7.44637C11.8241 6.95302 12 6.373 12 5.77966C12 4.98401 11.6839 4.22095 11.1213 3.65834C10.5587 3.09573 9.79566 2.77966 9.00001 2.77966ZM12.375 21.4997H5.62501C4.09959 21.4041 2.66812 20.7301 1.62278 19.615C0.577433 18.5 -0.00297644 17.0281 1.14791e-05 15.4997C0.00394913 14.8047 0.281775 14.1393 0.773207 13.6479C1.26464 13.1564 1.93003 12.8786 2.62501 12.8747H15.375C16.07 12.8786 16.7354 13.1564 17.2268 13.6479C17.7182 14.1393 17.9961 14.8047 18 15.4997C18.003 17.0281 17.4226 18.5 16.3772 19.615C15.3319 20.7301 13.9004 21.4041 12.375 21.4997ZM2.62501 15.1247C2.52556 15.1247 2.43017 15.1642 2.35985 15.2345C2.28952 15.3048 2.25001 15.4002 2.25001 15.4997C2.23845 16.4345 2.57928 17.3393 3.20467 18.0342C3.83007 18.7291 4.69417 19.163 5.62501 19.2497H12.375C13.3059 19.163 14.17 18.7291 14.7953 18.0342C15.4207 17.3393 15.7616 16.4345 15.75 15.4997C15.75 15.4002 15.7105 15.3048 15.6402 15.2345C15.5699 15.1642 15.4745 15.1247 15.375 15.1247H2.62501Z" fill="black"/>
</svg>
