<svg width="22" height="20" viewBox="0 0 22 20" fill="none" xmlns="http://www.w3.org/2000/svg">
<path d="M21.035 1.21C20.8942 1.09057 20.7255 1.00869 20.5445 0.971978C20.3636 0.935262 20.1763 0.944902 20 1L15.185 2.83L8.13503 1C8.09022 0.994018 8.04483 0.994018 8.00003 1C7.89621 0.977702 7.78884 0.977702 7.68503 1L1.29503 2.92C1.06414 2.99084 0.862182 3.1341 0.719012 3.32859C0.575843 3.52309 0.499062 3.75849 0.500025 4V17.875C0.498842 18.0499 0.538986 18.2225 0.617186 18.3789C0.695386 18.5353 0.80943 18.671 0.950025 18.775C1.13738 18.9241 1.37062 19.0036 1.61003 19C1.70941 19.0157 1.81064 19.0157 1.91003 19L7.91003 17.215L14.975 19H15.23C15.3496 19.0145 15.4705 19.0145 15.59 19L20.75 17.125C20.9787 17.042 21.1749 16.8881 21.3098 16.6857C21.4448 16.4833 21.5114 16.243 21.5 16V2.125C21.4983 1.94696 21.4554 1.77174 21.3747 1.61301C21.2941 1.45429 21.1778 1.31636 21.035 1.21ZM9.03503 3.565L14.195 4.885V16.435L9.03503 15.115V3.565ZM6.77003 15.16L2.70503 16.375V4.84L6.77003 3.625V15.16ZM19.295 15.16L16.295 16.24V4.795L19.295 3.715V15.16Z" fill="black"/>
</svg>
